<svg width="333" height="367" viewBox="0 0 333 367" fill="none" xmlns="http://www.w3.org/2000/svg">
<path d="M113.391 319.234L71.1059 361.369C67.8966 364.571 63.6818 366.172 59.4638 366.172C55.2522 366.172 51.0342 364.575 47.8216 361.368C46.688 360.237 45.7389 358.968 44.9911 357.603C43.6926 355.223 43.0039 352.543 43.0039 349.754C43.0006 345.365 44.7143 341.241 47.8249 338.137L90.0473 296.005C93.1649 292.868 97.3168 291.145 101.739 291.145H101.818C105.001 291.158 108.043 292.069 110.653 293.746L118.871 285.546L123.814 290.478L115.592 298.682C119.699 305.055 118.954 313.69 113.391 319.234Z" fill="#151818"/>
<path d="M113.4 319.231L71.1148 361.366C67.9055 364.569 63.6907 366.17 59.4727 366.17C55.2611 366.17 51.0431 364.572 47.8305 361.366C46.6969 360.235 45.7478 358.966 45 357.601C47.4517 358.93 50.1671 359.594 52.8826 359.594C57.1006 359.594 61.3154 357.992 64.5247 354.79C64.5247 354.79 96.3705 323.072 106.81 312.655C112.168 307.308 116.485 299.561 113.143 296.227L115.602 298.68C119.707 305.052 118.962 313.687 113.4 319.231Z" fill="#131313"/>
<path d="M92.1954 340.327L77.2945 355.197L70.7072 348.624L54.0098 331.969L68.9143 317.096L92.1954 340.327Z" fill="#BBBBBB"/>
<path d="M92.1991 340.327L77.2982 355.196L70.7109 348.623C74.6685 344.687 80.0826 339.291 85.6286 333.77L92.1991 340.327Z" fill="#8E9393"/>
<path d="M281.561 223.234C281.561 275.699 238.784 318.379 186.206 318.379C184.169 318.379 182.151 318.314 180.147 318.189C130.38 315.059 90.8555 273.667 90.8555 223.234C90.8555 172.801 130.38 131.404 180.147 128.274C182.151 128.149 184.169 128.084 186.206 128.084C238.784 128.084 281.561 170.769 281.561 223.234Z" fill="#151818"/>
<path d="M281.562 223.234C281.562 275.699 238.785 318.379 186.207 318.379C184.17 318.379 182.152 318.314 180.148 318.188C229.916 315.059 269.445 273.666 269.445 223.234C269.445 172.801 229.916 131.404 180.148 128.274C182.152 128.149 184.17 128.083 186.207 128.083C238.785 128.083 281.562 170.769 281.562 223.234Z" fill="#020202"/>
<path d="M264.559 223.234C264.559 266.337 229.415 301.405 186.214 301.405C183.86 301.405 181.525 301.303 179.223 301.094C139.289 297.555 107.869 263.984 107.869 223.234C107.869 182.478 139.289 148.908 179.223 145.369C181.525 145.159 183.86 145.057 186.214 145.057C229.415 145.057 264.559 180.125 264.559 223.234Z" fill="#F4F4F4"/>
<path d="M264.55 223.234C264.55 266.337 229.407 301.405 186.205 301.405C183.852 301.405 181.517 301.303 179.215 301.094C219.154 297.555 250.569 263.984 250.569 223.234C250.569 182.478 219.154 148.908 179.215 145.369C181.517 145.159 183.852 145.057 186.205 145.057C229.407 145.057 264.55 180.125 264.55 223.234Z" fill="#E1E4E6"/>
<path d="M210.925 268.421L197.873 248.854C197.338 248.052 197.555 246.968 198.357 246.433C199.159 245.898 200.243 246.114 200.779 246.916L213.83 266.483C214.365 267.285 214.149 268.37 213.347 268.905C212.545 269.439 211.46 269.223 210.925 268.421Z" fill="#4379E2"/>
<path d="M213.182 222.022C213.174 221.057 213.95 220.269 214.914 220.262L227.663 220.162C228.627 220.154 229.415 220.93 229.423 221.895C229.43 222.859 228.655 223.647 227.69 223.654L214.942 223.754C213.978 223.762 213.189 222.987 213.182 222.022Z" fill="#4379E2"/>
<path d="M133.338 238.858C131.67 238.389 131.632 236.02 133.294 235.508L149.531 230.503C150.452 230.218 151.43 230.735 151.714 231.657C151.998 232.579 151.481 233.556 150.559 233.84C132.891 239.286 134.034 239.054 133.338 238.858Z" fill="#4379E2"/>
<path d="M217.104 232.048C210.4 255.906 182.029 266.29 161.506 251.983C141.057 237.742 140.761 207.37 161.105 192.802C169.74 186.617 181.001 184.268 192.023 187.364C211.301 192.781 222.514 212.794 217.104 232.048Z" fill="#1C5DDC"/>
<path d="M189.561 242.07C196.176 243.928 203.046 240.072 204.904 233.457C206.763 226.842 202.907 219.973 196.292 218.114C189.677 216.256 182.808 220.111 180.949 226.726C179.09 233.341 182.946 240.211 189.561 242.07Z" fill="#4379E2"/>
<path d="M161.514 234.534C165.111 235.545 168.847 233.448 169.858 229.85C170.869 226.252 168.772 222.517 165.174 221.506C161.577 220.495 157.841 222.592 156.83 226.189C155.819 229.787 157.916 233.523 161.514 234.534Z" fill="#4379E2"/>
<path d="M154.406 262.168C153.614 261.617 153.42 260.529 153.97 259.737L165.869 242.655C166.42 241.863 167.509 241.669 168.3 242.22C169.091 242.771 169.286 243.86 168.735 244.651L156.836 261.733C156.285 262.524 155.197 262.719 154.406 262.168Z" fill="#4379E2"/>
<path d="M201.409 203.204C200.73 202.52 200.735 201.414 201.419 200.735L215.552 186.716C216.237 186.037 217.342 186.041 218.022 186.726C218.701 187.41 218.696 188.516 218.012 189.195L203.879 203.214C203.194 203.893 202.089 203.889 201.409 203.204Z" fill="#4379E2"/>
<path d="M234.273 226.543C229.464 229.862 222.852 225.246 224.467 219.566C225.408 216.258 228.902 214.392 232.273 215.396C237.427 216.931 238.537 223.625 234.273 226.543Z" fill="#1C5DDC"/>
<path d="M217.677 272.206C212.868 275.525 206.257 270.909 207.872 265.229C208.812 261.921 212.306 260.055 215.678 261.059C220.832 262.594 221.941 269.288 217.677 272.206Z" fill="#1C5DDC"/>
<path d="M179.151 246.836C181.497 247.988 183.149 250.137 182.841 251.639C182.412 253.735 178.604 253.281 176.017 250.892L176.017 250.891C174.826 249.793 174.14 248.483 174.348 247.469C174.655 245.968 176.805 245.685 179.151 246.836V246.836Z" fill="#4379E2"/>
<path d="M209.491 210.857C211.837 212.008 213.488 214.158 213.181 215.659C212.751 217.755 208.943 217.301 206.357 214.912L206.357 214.911C205.165 213.814 204.48 212.503 204.687 211.489C204.995 209.988 207.145 209.705 209.491 210.857V210.857Z" fill="#4379E2"/>
<path d="M221.831 193.333C217.022 196.651 210.411 192.035 212.026 186.356C212.966 183.048 216.46 181.182 219.832 182.186C224.986 183.721 226.095 190.415 221.831 193.333Z" fill="#1C5DDC"/>
<path d="M159.546 263.905C154.737 267.223 148.126 262.607 149.741 256.928C150.681 253.62 154.175 251.754 157.547 252.758C162.701 254.293 163.81 260.987 159.546 263.905Z" fill="#1C5DDC"/>
<path d="M138.806 243.145C133.997 246.463 127.386 241.847 129.001 236.168C129.941 232.86 133.435 230.994 136.807 231.998C141.96 233.533 143.07 240.227 138.806 243.145Z" fill="#1C5DDC"/>
<path d="M195.77 191.275C202.786 194.473 204.106 205.806 197.347 207.752C181.258 205.335 168.75 206.704 165.172 216.436C162.591 219.31 153.563 215.78 153.365 210.756C153.332 193.627 179.139 183.694 195.77 191.275Z" fill="#3C7DFD" fill-opacity="0.7"/>
<path d="M168.27 205.804L150.606 181.173C150.044 180.389 150.224 179.298 151.008 178.736C151.791 178.174 152.882 178.354 153.444 179.138L171.108 203.768C171.67 204.552 171.49 205.643 170.707 206.205C169.923 206.767 168.832 206.587 168.27 205.804Z" fill="#4379E2"/>
<path d="M154.138 183.095C149.328 186.553 142.732 182.021 144.356 176.241C145.302 172.875 148.796 170.913 152.162 171.859C157.308 173.305 158.403 180.054 154.138 183.095Z" fill="#1C5DDC"/>
<path d="M176.815 212.638C174.747 212.057 173.537 209.902 174.118 207.834C174.699 205.766 176.854 204.557 178.922 205.138C180.99 205.719 182.199 207.874 181.618 209.941C181.037 212.009 178.882 213.219 176.815 212.638Z" fill="#4379E2"/>
<path d="M38.6506 157.28L33.0158 148.833C32.7848 148.487 32.8783 148.018 33.2246 147.787C33.571 147.556 34.039 147.65 34.2701 147.996L39.9049 156.444C40.1359 156.79 40.0424 157.258 39.6961 157.489C39.3498 157.72 38.8818 157.627 38.6506 157.28Z" fill="#4379E2"/>
<path d="M39.6237 137.248C39.6204 136.832 39.9553 136.492 40.3717 136.489L45.8756 136.446C46.2917 136.442 46.6322 136.777 46.6354 137.194C46.6387 137.61 46.3038 137.95 45.8875 137.953L40.3835 137.996C39.9676 138 39.627 137.665 39.6237 137.248Z" fill="#4379E2"/>
<path d="M5.15297 144.517C4.43273 144.315 4.41638 143.292 5.13418 143.071L12.1438 140.91C12.5417 140.787 12.9637 141.011 13.0864 141.408C13.209 141.806 12.9859 142.228 12.588 142.351C4.96006 144.702 5.45344 144.602 5.15297 144.517Z" fill="#4379E2"/>
<path d="M41.3164 141.577C38.4222 151.878 26.1736 156.361 17.3128 150.184C8.48435 144.036 8.35674 130.923 17.1398 124.633C20.8677 121.963 25.7298 120.949 30.4881 122.286C38.8109 124.624 43.652 133.265 41.3164 141.577Z" fill="#1C5DDC"/>
<path d="M29.4253 145.904C32.2813 146.706 35.247 145.041 36.0494 142.185C36.8519 139.33 35.1872 136.364 32.3313 135.561C29.4753 134.759 26.5096 136.424 25.7072 139.28C24.9047 142.135 26.5694 145.101 29.4253 145.904Z" fill="#4379E2"/>
<path d="M17.3159 142.651C18.8691 143.087 20.4821 142.182 20.9185 140.628C21.3549 139.075 20.4496 137.462 18.8964 137.026C17.3431 136.589 15.7302 137.495 15.2938 139.048C14.8573 140.601 15.7627 142.214 17.3159 142.651Z" fill="#4379E2"/>
<path d="M14.2498 154.581C13.9082 154.343 13.8241 153.873 14.0619 153.532L19.199 146.156C19.4369 145.815 19.9069 145.731 20.2485 145.969C20.59 146.207 20.6741 146.677 20.436 147.018L15.2992 154.393C15.0613 154.735 14.5914 154.819 14.2498 154.581Z" fill="#4379E2"/>
<path d="M34.5422 129.124C34.249 128.829 34.2509 128.352 34.5465 128.058L40.6482 122.006C40.9438 121.713 41.4211 121.715 41.7143 122.01C42.0076 122.306 42.0056 122.783 41.71 123.076L35.6083 129.129C35.3128 129.422 34.8356 129.42 34.5422 129.124Z" fill="#4379E2"/>
<path d="M48.7287 139.201C46.6525 140.633 43.7982 138.641 44.4954 136.188C44.9015 134.76 46.4099 133.955 47.8656 134.388C50.0906 135.051 50.5696 137.941 48.7287 139.201Z" fill="#1C5DDC"/>
<path d="M41.5646 158.915C39.4884 160.347 36.6342 158.355 37.3314 155.903C37.7374 154.474 39.2458 153.669 40.7015 154.102C42.9265 154.765 43.4055 157.655 41.5646 158.915Z" fill="#1C5DDC"/>
<path d="M24.9331 147.962C25.9459 148.459 26.659 149.387 26.5262 150.035C26.3408 150.94 24.6967 150.744 23.5801 149.713L23.5801 149.712C23.0656 149.238 22.7696 148.673 22.8592 148.235C22.992 147.587 23.9202 147.465 24.9331 147.962V147.962Z" fill="#4379E2"/>
<path d="M38.0307 132.428C39.0436 132.925 39.7566 133.853 39.6238 134.502C39.4384 135.407 37.7944 135.211 36.6777 134.179L36.6778 134.179C36.1633 133.705 35.8672 133.139 35.9569 132.701C36.0897 132.053 37.0179 131.931 38.0307 132.428V132.428Z" fill="#4379E2"/>
<path d="M43.3576 124.862C41.2814 126.295 38.4271 124.302 39.1243 121.85C39.5304 120.422 41.0388 119.616 42.4945 120.05C44.7195 120.713 45.1985 123.603 43.3576 124.862Z" fill="#1C5DDC"/>
<path d="M16.467 155.331C14.3907 156.763 11.5365 154.771 12.2337 152.319C12.6397 150.891 14.1482 150.085 15.6038 150.518C17.8289 151.181 18.3078 154.071 16.467 155.331Z" fill="#1C5DDC"/>
<path d="M7.51384 146.368C5.43762 147.801 2.58338 145.808 3.28057 143.356C3.68662 141.928 5.19506 141.122 6.65073 141.556C8.87575 142.218 9.35471 145.108 7.51384 146.368Z" fill="#1C5DDC"/>
<path d="M32.1064 123.974C35.1353 125.355 35.7052 130.248 32.7872 131.088C25.841 130.044 20.4412 130.635 18.8963 134.837C17.7821 136.078 13.8841 134.554 13.7988 132.385C13.7846 124.989 24.9265 120.701 32.1064 123.974Z" fill="#3C7DFD" fill-opacity="0.7"/>
<path d="M20.2345 130.247L12.6084 119.613C12.3658 119.274 12.4434 118.803 12.7818 118.561C13.1202 118.318 13.5912 118.396 13.8338 118.734L21.4597 129.368C21.7023 129.706 21.6248 130.177 21.2864 130.42C20.9481 130.663 20.477 130.585 20.2345 130.247Z" fill="#4379E2"/>
<path d="M14.1324 120.443C12.0556 121.936 9.20805 119.979 9.9092 117.483C10.3176 116.03 11.826 115.183 13.2794 115.592C15.5009 116.216 15.9738 119.13 14.1324 120.443Z" fill="#1C5DDC"/>
<path d="M23.9221 133.197C23.0294 132.946 22.5071 132.016 22.758 131.123C23.0088 130.23 23.9392 129.708 24.8319 129.959C25.7246 130.21 26.2469 131.14 25.996 132.033C25.7452 132.926 24.8148 133.448 23.9221 133.197Z" fill="#4379E2"/>
<path d="M261.139 70.773L252.459 57.7605C252.103 57.227 252.247 56.5059 252.78 56.1501C253.314 55.7943 254.035 55.9382 254.391 56.4717L263.071 69.4842C263.427 70.0177 263.283 70.7388 262.749 71.0946C262.216 71.4503 261.495 71.3067 261.139 70.773Z" fill="#4379E2"/>
<path d="M262.64 39.9164C262.635 39.275 263.151 38.7511 263.792 38.746L272.27 38.6799C272.911 38.6746 273.436 39.1907 273.441 39.832C273.446 40.4733 272.93 40.9972 272.289 41.0023L263.81 41.0685C263.17 41.0736 262.645 40.5581 262.64 39.9164Z" fill="#4379E2"/>
<path d="M209.541 51.1132C208.431 50.8015 208.406 49.226 209.512 48.8852L220.309 45.5567C220.922 45.3676 221.572 45.7113 221.761 46.3242C221.95 46.9371 221.606 47.5871 220.994 47.776C209.244 51.3981 210.004 51.2433 209.541 51.1132Z" fill="#4379E2"/>
<path d="M265.247 46.584C260.789 62.4506 241.921 69.3564 228.272 59.8414C214.673 50.3712 214.476 30.1727 228.006 20.4842C233.748 16.3712 241.237 14.8086 248.567 16.8681C261.387 20.4703 268.844 33.7798 265.247 46.584Z" fill="#1C5DDC"/>
<path d="M246.931 53.2487C251.33 54.4848 255.898 51.9206 257.134 47.5214C258.37 43.1221 255.806 38.5538 251.407 37.3177C247.008 36.0816 242.439 38.6459 241.203 43.0451C239.967 47.4443 242.531 52.0127 246.931 53.2487Z" fill="#4379E2"/>
<path d="M228.279 48.2374C230.671 48.9097 233.156 47.5151 233.828 45.1225C234.5 42.73 233.106 40.2455 230.713 39.5732C228.32 38.9009 225.836 40.2955 225.164 42.6881C224.491 45.0806 225.886 47.5652 228.279 48.2374Z" fill="#4379E2"/>
<path d="M223.552 66.6153C223.026 66.2488 222.896 65.525 223.263 64.9987L231.176 53.6382C231.542 53.1118 232.266 52.9826 232.792 53.3492C233.319 53.7158 233.448 54.4396 233.081 54.9659L225.169 66.326C224.802 66.8522 224.078 66.9817 223.552 66.6153Z" fill="#4379E2"/>
<path d="M254.811 27.4022C254.36 26.9469 254.362 26.2116 254.818 25.7599L264.217 16.4369C264.672 15.9852 265.407 15.9881 265.859 16.4436C266.311 16.8989 266.308 17.6341 265.852 18.0858L256.453 27.4089C255.998 27.8604 255.263 27.8577 254.811 27.4022Z" fill="#4379E2"/>
<path d="M276.666 42.9231C273.468 45.1301 269.071 42.0603 270.145 38.2833C270.771 36.0834 273.094 34.8422 275.336 35.5101C278.764 36.531 279.502 40.9824 276.666 42.9231Z" fill="#1C5DDC"/>
<path d="M265.629 73.2905C262.431 75.4975 258.034 72.4277 259.108 68.6507C259.733 66.4508 262.057 65.2096 264.299 65.8775C267.727 66.8985 268.464 71.3498 265.629 73.2905Z" fill="#1C5DDC"/>
<path d="M240.008 56.4187C241.568 57.1846 242.666 58.614 242.462 59.6124C242.176 61.0066 239.644 60.7047 237.924 59.1158L237.924 59.1152C237.131 58.3852 236.675 57.5139 236.813 56.8396C237.018 55.8412 238.448 55.6528 240.008 56.4187V56.4187Z" fill="#4379E2"/>
<path d="M260.184 32.4909C261.744 33.2568 262.842 34.6863 262.638 35.6847C262.352 37.0789 259.82 36.777 258.099 35.1881L258.1 35.1875C257.307 34.4575 256.851 33.5862 256.989 32.9118C257.194 31.9134 258.623 31.725 260.184 32.4909V32.4909Z" fill="#4379E2"/>
<path d="M268.392 20.8371C265.194 23.0441 260.798 19.9744 261.872 16.1973C262.497 13.9975 264.821 12.7563 267.063 13.4242C270.49 14.4451 271.228 18.8965 268.392 20.8371Z" fill="#1C5DDC"/>
<path d="M226.969 67.77C223.77 69.977 219.374 66.9072 220.448 63.1302C221.073 60.9303 223.397 59.6891 225.639 60.357C229.067 61.378 229.804 65.8293 226.969 67.77Z" fill="#1C5DDC"/>
<path d="M213.178 53.9636C209.979 56.1706 205.583 53.1008 206.657 49.3238C207.282 47.1239 209.606 45.8827 211.848 46.5506C215.276 47.5716 216.013 52.0229 213.178 53.9636Z" fill="#1C5DDC"/>
<path d="M251.06 19.4688C255.726 21.5958 256.603 29.1323 252.109 30.4265C241.409 28.8192 233.091 29.7294 230.711 36.2018C228.995 38.1131 222.991 35.7652 222.859 32.4241C222.837 21.0327 240 14.427 251.06 19.4688Z" fill="#3C7DFD" fill-opacity="0.7"/>
<path d="M232.773 29.131L221.026 12.7507C220.652 12.2295 220.772 11.504 221.293 11.1302C221.814 10.7565 222.54 10.8762 222.914 11.3972L234.66 27.7773C235.034 28.2984 234.915 29.0239 234.394 29.3976C233.872 29.7717 233.147 29.6521 232.773 29.131Z" fill="#4379E2"/>
<path d="M223.374 14.0288C220.175 16.3284 215.789 13.3142 216.869 9.47035C217.498 7.23162 219.822 5.92739 222.06 6.55643C225.482 7.51792 226.211 12.0062 223.374 14.0288Z" fill="#1C5DDC"/>
<path d="M238.454 33.6756C237.079 33.2893 236.274 31.8562 236.661 30.481C237.047 29.1057 238.48 28.3014 239.855 28.6878C241.23 29.0742 242.035 30.5072 241.648 31.8825C241.262 33.2577 239.829 34.062 238.454 33.6756Z" fill="#4379E2"/>
<path d="M320.594 352.612L316.104 345.881C315.92 345.605 315.994 345.232 316.27 345.047C316.546 344.863 316.919 344.938 317.103 345.214L321.593 351.945C321.777 352.221 321.703 352.594 321.427 352.779C321.151 352.963 320.778 352.888 320.594 352.612Z" fill="#4379E2"/>
<path d="M321.37 336.649C321.368 336.318 321.634 336.047 321.966 336.044L326.352 336.01C326.684 336.007 326.955 336.274 326.958 336.606C326.96 336.938 326.693 337.209 326.362 337.211L321.976 337.245C321.644 337.248 321.373 336.981 321.37 336.649Z" fill="#4379E2"/>
<path d="M293.901 342.442C293.327 342.281 293.314 341.466 293.886 341.289L299.471 339.567C299.788 339.469 300.125 339.647 300.222 339.964C300.32 340.281 300.142 340.618 299.825 340.715C293.747 342.589 294.14 342.509 293.901 342.442Z" fill="#4379E2"/>
<path d="M322.719 340.099C320.413 348.307 310.652 351.879 303.592 346.957C296.557 342.058 296.455 331.609 303.454 326.597C306.424 324.469 310.299 323.661 314.091 324.726C320.723 326.59 324.58 333.475 322.719 340.099Z" fill="#1C5DDC"/>
<path d="M313.244 343.546C315.52 344.186 317.884 342.859 318.523 340.584C319.162 338.308 317.836 335.944 315.56 335.305C313.284 334.666 310.921 335.992 310.282 338.268C309.642 340.544 310.969 342.907 313.244 343.546Z" fill="#4379E2"/>
<path d="M303.595 340.954C304.833 341.302 306.118 340.58 306.466 339.343C306.814 338.105 306.092 336.82 304.854 336.472C303.617 336.124 302.331 336.846 301.984 338.083C301.636 339.321 302.357 340.606 303.595 340.954Z" fill="#4379E2"/>
<path d="M301.151 350.461C300.879 350.271 300.812 349.897 301.001 349.625L305.095 343.748C305.284 343.475 305.659 343.409 305.931 343.598C306.203 343.788 306.27 344.162 306.08 344.435L301.987 350.311C301.798 350.584 301.423 350.651 301.151 350.461Z" fill="#4379E2"/>
<path d="M317.321 330.175C317.087 329.94 317.089 329.56 317.324 329.326L322.187 324.503C322.422 324.269 322.803 324.271 323.036 324.506C323.27 324.742 323.268 325.122 323.033 325.356L318.171 330.179C317.935 330.413 317.555 330.411 317.321 330.175Z" fill="#4379E2"/>
<path d="M328.625 338.205C326.971 339.347 324.697 337.759 325.252 335.805C325.576 334.667 326.778 334.025 327.938 334.37C329.711 334.898 330.092 337.201 328.625 338.205Z" fill="#1C5DDC"/>
<path d="M322.917 353.914C321.262 355.056 318.988 353.468 319.543 351.514C319.867 350.376 321.069 349.734 322.229 350.08C324.002 350.608 324.383 352.91 322.917 353.914Z" fill="#1C5DDC"/>
<path d="M309.662 345.186C310.469 345.583 311.037 346.322 310.932 346.839C310.784 347.56 309.474 347.404 308.584 346.582L308.584 346.581C308.174 346.204 307.938 345.753 308.01 345.404C308.115 344.888 308.855 344.79 309.662 345.186V345.186Z" fill="#4379E2"/>
<path d="M320.102 332.808C320.909 333.205 321.477 333.944 321.371 334.461C321.223 335.182 319.913 335.026 319.023 334.204L319.024 334.203C318.614 333.826 318.378 333.375 318.449 333.026C318.555 332.51 319.295 332.412 320.102 332.808V332.808Z" fill="#4379E2"/>
<path d="M324.346 326.779C322.692 327.921 320.417 326.333 320.973 324.379C321.296 323.241 322.498 322.599 323.658 322.945C325.431 323.473 325.813 325.775 324.346 326.779Z" fill="#1C5DDC"/>
<path d="M302.918 351.058C301.264 352.2 298.99 350.612 299.545 348.658C299.869 347.52 301.071 346.878 302.231 347.224C304.004 347.752 304.385 350.055 302.918 351.058Z" fill="#1C5DDC"/>
<path d="M295.782 343.916C294.127 345.058 291.853 343.47 292.408 341.516C292.732 340.378 293.934 339.736 295.094 340.082C296.867 340.61 297.249 342.912 295.782 343.916Z" fill="#1C5DDC"/>
<path d="M315.38 326.072C317.793 327.172 318.247 331.071 315.922 331.74C310.387 330.909 306.084 331.38 304.853 334.728C303.965 335.717 300.859 334.502 300.791 332.774C300.78 326.881 309.658 323.463 315.38 326.072Z" fill="#3C7DFD" fill-opacity="0.7"/>
<path d="M305.919 331.07L299.842 322.596C299.648 322.326 299.71 321.951 299.98 321.758C300.25 321.564 300.625 321.626 300.818 321.896L306.895 330.37C307.088 330.639 307.027 331.014 306.757 331.208C306.487 331.401 306.112 331.339 305.919 331.07Z" fill="#4379E2"/>
<path d="M301.058 323.257C299.403 324.447 297.133 322.888 297.692 320.899C298.018 319.741 299.22 319.066 300.378 319.392C302.148 319.889 302.525 322.211 301.058 323.257Z" fill="#1C5DDC"/>
<path d="M308.858 333.421C308.147 333.221 307.731 332.48 307.93 331.768C308.13 331.057 308.872 330.641 309.583 330.841C310.294 331.041 310.711 331.782 310.511 332.493C310.311 333.205 309.569 333.621 308.858 333.421Z" fill="#4379E2"/>
</svg>
