<svg width="197" height="197" viewBox="0 0 197 197" fill="none" xmlns="http://www.w3.org/2000/svg">
<path d="M147.75 147.75C174.95 120.55 174.95 76.45 147.75 49.25C120.55 22.05 76.45 22.05 49.25 49.25C22.05 76.45 22.05 120.55 49.25 147.75C76.45 174.95 120.55 174.95 147.75 147.75Z" fill="#81CBF2"/>
<path d="M160.277 115.044C159.716 115.082 159.382 116.016 159.043 116.479C158.353 117.423 157.47 118.209 156.452 118.785C155.058 119.633 154.801 120.524 154.74 122.133C154.686 123.506 154.238 124.434 153.864 125.644C153.667 126.318 153.71 127.039 153.985 127.686C154.397 128.69 154.935 128.114 155.474 128.747V128.827C156.776 130.256 158.416 125.783 158.804 125.053C159.274 124.203 159.657 123.307 159.945 122.378C160.262 121.263 159.995 120.168 160.062 119.041C160.733 120.178 160.769 117.931 160.703 117.475C160.608 116.812 160.516 115.705 160.277 115.044Z" fill="#004775"/>
<path d="M129.496 42.7007C128.6 43.5668 127.591 44.2259 126.636 45.0478C126.011 45.5864 125.601 45.7512 124.86 46.1109C124.283 46.3902 123.805 46.6434 123.801 47.3568C123.801 47.9134 124.247 48.675 124.512 49.1553C124.976 49.9953 125.211 49.9169 126.023 49.5833C127.342 49.0408 128.25 49.1613 128.943 50.6182C129.206 51.1709 128.853 52.2259 129.373 52.6458C129.753 52.9453 130.579 52.5594 130.904 52.1917C131.361 51.6732 131.079 51.2713 131.288 50.6846C131.497 50.0978 132.183 49.4909 132.554 48.9845C133.115 48.2249 132.824 48.3113 132.693 47.5236C132.655 47.2197 132.677 46.9114 132.758 46.6161C132.84 46.3209 132.979 46.0447 133.167 45.8034C133.595 45.3272 134.136 45.1584 134.558 44.662C134.855 44.3103 135.763 43.4563 136.354 44.1074C136.945 44.7585 134.688 46.4083 134.576 47.192C134.317 48.9483 136.316 48.7695 137.433 48.5042C137.992 48.3716 138.888 47.7928 139.479 48.0059C140.231 48.2751 140.066 48.8619 139.393 48.9885C138.832 49.093 137.934 48.7192 137.351 49.0066C136.547 49.4085 137.299 49.8707 137.176 50.5278C136.523 50.6082 136.091 49.9651 135.474 50.1259C134.68 50.3269 134.905 51.207 134.903 51.844C134.889 53.952 133.25 52.5152 131.889 52.8247C131.085 53.0035 130.913 53.4818 130.095 53.3934C129.552 53.3351 128.889 53.4597 128.381 53.2567C127.434 52.883 127.754 52.4369 127.89 51.7617C128.027 51.0865 127.746 50.6564 127.631 49.9772C126.723 49.8265 125.991 51.3497 126.09 52.0892C126.256 53.3452 126.739 53.6627 125.113 53.7209C123.664 53.7752 123.214 54.9568 122.099 55.7626C121.126 56.4659 120.121 57.3702 119.012 57.9048C118.478 58.162 115.319 57.5792 116.522 59.1929C117.294 60.2278 118.673 60.3845 118.584 62.0484C118.492 63.7746 116.725 62.9286 115.481 62.8663C114.879 62.8341 114.014 62.8381 113.522 63.1898C112.839 63.6721 113.066 64.1845 112.955 64.9059C112.769 66.1116 112.063 67.1787 112.461 68.4166C112.961 69.976 114.629 68.1232 115.073 69.9679L115.475 69.6404C115.761 70.0543 116.974 69.7027 117.437 69.562C118.783 69.1601 119.155 67.9745 119.983 66.9637C120.433 66.4151 121.026 66.2985 121.52 65.8022C122.157 65.1632 121.755 64.6588 122.083 64.0037C122.442 63.2923 123.112 63.8027 123.718 63.8449C124.695 63.9052 124.578 63.4812 125.209 63.0511C126.025 62.4965 127.717 63.5053 128.439 64.1122C129.325 64.8537 130.613 65.4606 131.335 66.3548C131.68 66.7808 131.775 67.5063 131.234 67.9242C130.812 68.2518 129.683 67.5686 129.51 68.2538C129.417 68.6296 130.444 69.2907 130.716 69.3349C131.318 69.4394 131.63 68.9853 132.102 68.5592C132.637 68.077 132.757 67.8358 132.705 67.1064C132.631 66.1739 132.53 66.2604 133.589 66.2001C133.511 65.5972 132.707 65.547 132.275 65.334C131.696 65.0526 131.626 64.7653 131.212 64.3573C130.545 63.6982 128.915 63.021 128.778 61.97C128.535 60.1172 130.975 62.0062 131.457 62.396C132.404 63.1657 133.834 63.8027 134.435 64.9039C134.779 65.5409 134.636 66.2644 134.968 66.8833C135.217 67.3616 135.709 67.667 135.906 68.1674C136.129 68.7301 136.027 69.6605 136.865 69.7228C137.869 69.8031 137.391 68.8788 137.285 68.3462C138.201 68.4909 137.825 67.9443 137.662 67.5424C137.423 66.9637 136.999 66.5959 137.518 65.967C138.291 65.0345 139.547 65.7359 140.458 65.8082C142.972 66.0092 140.407 64.2709 140.805 63.2119C141.117 62.382 142.373 60.698 143.237 60.7422C143.558 60.7891 143.869 60.8932 144.153 61.0497C144.378 61.2506 144.218 61.546 144.439 61.745C145.041 62.2976 145.56 61.6405 146.247 61.4978C147.375 61.2667 148.659 62.3438 149.575 62.8884C150.58 63.4912 152.589 64.1664 151.064 65.34C149.88 66.2563 148.653 65.3279 147.228 65.4003C146.559 65.4324 145.954 65.6314 145.269 65.563C144.583 65.4947 143.93 65.2938 143.225 65.4787C142.648 65.6314 142.22 66.1197 141.678 66.3005C140.874 66.5618 140.345 66.1096 140.472 67.036C140.657 68.3623 141.051 69.4816 142.572 69.4816C143.882 69.4816 145.184 69.2063 146.49 69.1561C147.513 69.1139 147.618 69.2565 147.495 70.1608C147.39 70.803 147.33 71.4516 147.314 72.102C147.298 73.4002 147.286 74.849 145.68 74.9596C144.358 75.05 142.903 74.7968 141.517 74.7968C140.836 74.7968 140.164 74.829 139.539 74.6501C138.914 74.4713 138.334 74.1678 137.681 74.0794C137.243 74.0211 135.993 73.8885 135.635 74.1397C135.277 74.3909 135.563 74.7003 135.313 74.9636C135.064 75.2268 134.911 75.1143 134.578 75.2047C132.97 75.6287 132.769 74.6622 131.564 73.9588C130.961 73.6072 130.259 73.4544 129.683 73.0586C129.106 72.6627 129.142 72.1884 128.722 71.674C128.495 71.3967 128.103 71.2982 127.961 70.9586C127.846 70.6853 128.077 70.2613 127.961 69.98C127.655 69.1902 127.002 69.6042 126.242 69.4937C124.971 69.3345 123.688 69.2995 122.41 69.3892C121.092 69.4535 120.139 70.0362 118.976 70.609C118.429 70.8802 117.891 71.3063 117.268 71.2862C116.689 71.2661 116.329 70.8039 115.716 70.7958C114.378 70.7798 113.767 72.102 112.961 73.0063C112.616 73.3901 111.989 73.7036 111.714 74.1276C111.328 74.7204 111.643 75.3876 111.41 76.0266C110.984 77.1861 109.585 77.3107 108.94 78.2371L108.613 78.639C108.092 79.3042 107.351 79.3444 106.881 80.0236C106.338 80.8053 106.197 81.8924 105.773 82.7203C105.605 83.0459 105.096 83.6467 105.036 83.9401C104.935 84.4264 105.299 84.754 105.438 85.17C105.762 86.0769 105.74 87.0715 105.376 87.9632C105.088 88.6424 105.175 89.3518 104.887 89.9848C104.556 90.7182 104.254 90.9393 104.375 91.8637C104.576 93.4291 106.348 94.2007 107.375 95.2316C108.46 96.3188 109.955 96.7508 110.494 98.2459C110.918 99.4195 110.707 99.8535 112.049 99.7792C112.809 99.733 113.57 99.4536 114.334 99.4476C115.033 99.4476 115.594 99.6988 116.293 99.6968C117.278 99.6596 118.246 99.4252 119.139 99.0075C120.459 98.4469 121.952 97.7013 123.065 98.9452C123.68 99.6245 123.945 100.127 124.858 100.314C125.662 100.478 125.965 100.402 126.431 101.13C127.334 102.548 126.114 103.905 126.488 105.394C126.795 106.62 128.226 107.687 128.881 108.738C129.309 109.431 129.068 110.016 129.204 110.781C129.341 111.547 129.841 112.154 130.062 112.859C130.555 114.419 129.448 115.558 129.204 116.989C129.056 117.853 128.772 118.797 128.776 119.663C128.776 120.387 129.064 121.084 129.204 121.802C129.345 122.519 129.452 123.323 129.86 123.988C130.223 124.591 130.892 125.021 131.065 125.72C131.389 127.038 131.019 128.505 131.487 129.785C131.72 130.42 132.199 130.69 132.554 131.192C132.91 131.694 133.077 132.295 133.334 132.828C133.852 133.907 133.24 135.547 134.491 136.009L134.893 136.907C135.587 136.907 136.051 136.706 136.628 136.441C137.379 136.091 137.658 136.3 138.486 136.256C139.803 136.186 140.918 135.169 141.903 134.447C143.05 133.609 143.984 132.898 144.782 131.708C145.124 131.165 145.316 130.541 145.337 129.9C145.337 129.313 144.935 128.72 145.337 128.186C145.323 128.136 145.327 128.082 145.349 128.035C146.299 127.507 148.064 127.195 147.869 125.571C147.784 124.874 147.131 124.536 147.212 123.775C147.278 123.12 147.873 122.465 148.273 121.966C148.797 121.303 149.278 120.574 149.969 120.085C150.584 119.653 151.253 119.521 151.679 118.88C152.551 117.576 152.081 116.159 152.292 114.716C152.445 113.683 152.292 113.751 151.799 112.835C151.508 112.292 151.313 111.659 151.516 111.105C151.635 110.783 151.946 110.872 151.948 110.389C151.948 110.054 151.592 109.951 151.546 109.658C151.41 108.959 151.832 108.468 152.057 107.88C152.306 107.222 152.388 106.72 152.834 106.145C153.28 105.571 153.857 105.098 154.404 104.596C155.561 103.533 156.429 102.259 157.673 101.308C159.683 99.7752 160.487 96.6102 160.953 94.245C161.081 93.5899 161.526 92.9548 160.852 92.6755C160.296 92.4424 159.496 92.7519 159.044 92.981C157.916 93.5436 156.699 94.3032 155.388 94.2249C153.956 94.1405 153.283 92.9729 153.009 91.7089C152.447 91.3995 152.358 90.873 151.962 90.4048C151.566 89.9365 150.988 89.7416 150.654 89.2453C150.32 88.7489 150.314 88.0838 149.983 87.6135C149.505 86.9323 149.159 86.9162 149.022 86.0622C148.914 85.383 149.022 84.7942 148.634 84.1853C148.247 83.5764 147.69 83.5724 147.204 83.1444C145.986 82.0592 146.177 80.7329 145.735 79.3685C145.518 78.7033 144.581 76.3843 145.333 75.8699C145.877 76.5049 146.072 76.8465 146.764 76.6074C147.513 76.3502 147.545 76.0045 148.048 76.9189C148.612 77.9558 148.813 78.7073 149.655 79.6337C150.523 80.5617 151.226 81.6315 151.733 82.7967C152.025 83.494 152.025 84.1371 152.205 84.8384C152.386 85.5397 152.752 85.6301 153.287 86.1245C154.133 86.9042 155.167 87.9511 155.308 89.0825C155.449 90.2139 154.79 92.0586 156.614 92.0224C157.808 91.9983 159.211 91.0599 160.366 90.7102C161.996 90.2179 162.577 89.189 163.782 88.0034C164.853 86.9524 165.969 86.2149 166.33 84.756C166.425 84.3762 166.354 84.2074 166.571 83.8557C166.577 83.8465 166.583 83.8378 166.59 83.8296C166.429 83.0821 166.257 82.3385 166.073 81.599C165.671 81.2092 165.354 80.755 165.026 80.4255C164.391 79.7844 164.297 80.1321 163.883 80.755C163.256 81.6975 161.186 82.1738 160.394 81.1409C159.882 80.4717 160.252 79.8849 159.311 79.3886C158.648 79.0389 158.053 79.069 157.836 78.225C157.563 77.154 157.5 74.6642 159.233 75.7553C159.747 76.0789 159.858 76.6516 160.187 77.0997C160.623 77.6851 161.132 78.2131 161.7 78.6712C162.739 79.475 164.112 78.8721 165.048 79.8106C165.396 80.1602 165.518 80.329 165.788 80.4637C161.192 63.378 150.278 48.6761 135.253 39.3328C134.28 39.5145 133.323 39.7718 132.39 40.1024C131.236 40.5465 130.358 41.8587 129.496 42.7007Z" fill="#004775"/>
<path d="M115.152 52.907C114.77 53.0899 114.549 53.5099 114.236 53.7611C113.766 54.1208 113.151 53.962 112.703 54.3137C112.538 54.4699 112.425 54.6714 112.375 54.8925C112.326 55.1136 112.343 55.3444 112.425 55.5556C112.626 56.0037 113.344 55.8831 113.331 56.3493V56.4116H113.697C114.328 55.8952 115.506 55.6279 115.719 54.6975C115.779 54.4443 115.747 54.2072 115.855 53.962C115.964 53.7168 116.185 53.749 116.207 53.4114C116.249 52.7804 115.584 52.7 115.152 52.907Z" fill="#004775"/>
<path d="M112.343 43.1248C112.459 42.8655 111.714 42.7229 111.74 42.3913C111.782 41.7623 111.115 41.6779 110.683 41.8849C110.301 42.0678 110.08 42.4877 109.767 42.7409C109.299 43.1006 108.684 42.9419 108.235 43.2936C107.954 43.5086 106.409 44.1757 106.61 44.5957C106.811 45.0157 107.53 44.9213 107.516 45.3995C107.516 45.4176 108.862 45.3774 108.862 45.3995H109.23C109.861 44.8811 112.124 44.9816 112.345 44.0532C112.401 43.7899 112.234 43.3719 112.343 43.1248Z" fill="#004775"/>
<path d="M116.496 52.2039C116.727 52.5897 117.169 52.7042 117.247 53.1664C117.326 53.6286 117 53.9803 116.928 54.3902C116.856 54.8002 117.053 55.395 116.805 55.7848C116.464 56.3194 116.152 56.2973 116.086 57.0247L116.452 57.2679C116.631 57.0106 117.404 57.1433 117.752 57.0368C118.2 56.9001 118.471 56.4661 118.915 56.3053C119.237 56.1888 120.121 56.4158 120.358 56.2149C120.861 55.7848 119.972 55.4111 119.88 55.0654C119.824 54.8524 120.081 54.6635 120.002 54.3902C119.902 54.0466 119.802 54.1893 119.589 54.0104C119.376 53.8316 118.849 53.5342 118.785 53.1544C118.72 52.7746 119.024 52.7806 119.094 52.5093C119.185 52.1677 119.068 52.2601 119.018 51.9426C118.968 51.6251 118.931 51.6955 119.004 51.39C119.062 51.1489 119.327 51.1006 119.263 50.7771C119.142 50.1743 118.369 50.55 118.091 50.0416C118.439 49.8568 118.799 49.3825 118.327 49.0148C117.959 48.7294 117.288 49.1032 116.996 49.3704C116.337 49.9813 116.02 51.4061 116.496 52.2039Z" fill="#004775"/>
<path d="M107.591 40.6911C107.767 40.2591 107.237 39.8491 107.878 39.5718C108.366 39.3608 108.929 39.9496 109.162 39.387C109.395 38.8243 108.525 38.6294 108.718 38.1049C108.911 37.5804 109.773 37.8477 110.205 37.7994C111.23 37.6829 111.27 36.9253 111.318 36.0331C111.865 35.806 112.036 35.5347 112.104 34.9821C112.192 34.2808 112.214 34.0175 112.908 33.6337C113.778 33.1434 114.795 33.0308 115.617 32.5345C115.852 32.3938 116.585 31.9517 116.463 31.6121C116.34 31.2725 115.361 31.4112 115.056 31.4313C113.671 31.4755 112.315 32.0542 110.892 31.9839C108.32 31.8553 105.917 30.8204 103.314 30.8184C101.676 30.8184 99.9403 30.9771 98.3869 31.4916C96.8335 32.006 95.3003 32.0944 93.7027 32.2954C92.925 32.3898 92.284 32.5988 91.4701 32.5988C90.7018 32.6101 89.9404 32.7459 89.2154 33.0007C88.1544 33.3343 87.0894 33.9592 86.0324 34.118C85.2728 34.2325 83.2753 34.335 84.7021 35.4523C85.4536 36.0391 86.4182 35.8964 87.3144 36.013C87.9636 36.131 88.5737 36.4071 89.0908 36.8168C89.8806 37.4196 89.324 37.5 89.2737 38.2234C89.2134 39.0574 89.9549 38.7298 90.3769 39.0273C91.1024 39.5538 90.0474 39.5839 89.6515 39.6944C89.6254 40.2169 89.7259 40.4982 89.336 40.8037C88.9823 41.085 88.6528 41.1071 88.3554 41.5231C87.7786 42.3269 87.6661 43.2292 87.6199 44.2178C87.5837 45.0217 88.2971 49.0708 89.5189 48.4378L89.9469 48.3153C90.5819 49.7923 92.1936 48.681 92.8286 47.9335C93.1963 47.5034 93.3973 47.0312 93.8514 46.6474C94.3056 46.2635 94.8743 46.0144 95.3344 45.6426C95.7946 45.2708 96.0317 44.8046 96.3894 44.3545C96.7732 43.8702 97.2716 43.8039 97.8463 43.6813C98.9496 43.4462 100.057 43.5447 100.971 42.8092C102.05 41.935 102.981 41.6537 104.387 41.5834C105.115 41.5593 107.241 41.5552 107.591 40.6911Z" fill="#004775"/>
<path d="M78.9359 33.2238C78.6224 33.7664 76.9826 33.9352 76.4079 34.0638C75.4996 34.2647 74.6737 34.4657 73.7754 34.737L73.2871 34.9198C73.689 34.7189 74.3079 35.2273 74.7521 35.2916C75.2625 35.3639 75.7327 35.1891 76.225 35.167C77.1173 35.1208 78.4636 35.7015 79.2896 35.3539C79.6211 35.2152 80.0532 34.5883 80.4511 34.3712C80.9213 34.112 81.4558 34.0196 81.9823 33.8769C82.6425 33.6892 83.3197 33.5674 84.0039 33.5132C84.667 33.4629 84.8881 33.1736 85.4729 32.9103C86.4434 32.4783 87.6351 32.5566 88.6559 32.3075C89.6768 32.0583 90.6655 31.6162 91.7064 31.363C92.0259 30.5351 89.4959 30.9028 89.0719 30.8827C87.7216 30.8473 86.3705 30.9078 85.0287 31.0636C83.8049 31.1801 82.5289 31.0636 81.277 31.0033C79.8904 31.3556 78.5212 31.7501 77.1695 32.1869C77.7804 32.416 79.4604 32.3215 78.9359 33.2238Z" fill="#004775"/>
<path d="M74.3877 33.7582C74.9142 33.6537 75.3744 33.4769 75.919 33.4226C76.1722 33.3818 76.4281 33.3603 76.6846 33.3583C76.9117 33.3704 77.197 33.4628 77.4181 33.4226C77.5287 33.3891 77.6327 33.3368 77.7255 33.2679L77.818 32.9926C77.4764 32.7193 77.0343 32.5706 76.6484 32.3516C75.3784 32.7695 74.1258 33.2224 72.8906 33.71C73.3825 33.8172 73.8899 33.8335 74.3877 33.7582Z" fill="#004775"/>
<path d="M81.728 42.084C81.1251 41.8669 80.3716 41.883 80.0521 41.2661C79.7848 40.7456 79.9898 40.617 80.3053 40.2171C80.9604 39.3892 78.8745 38.5814 78.2535 38.3864C77.8338 38.2474 77.3954 38.1729 76.9534 38.1654C76.3726 38.1654 75.8944 38.0167 75.3458 38.2257C75.0343 38.3422 74.5038 38.6597 74.2807 38.3442C74.0577 38.0288 74.2064 37.667 73.718 37.5826C73.2297 37.4982 72.9022 37.9624 72.5606 38.2217C72.2525 38.4595 71.8967 38.6281 71.5176 38.716C71.443 38.5752 71.412 38.4153 71.4285 38.2568C71.4449 38.0983 71.5081 37.9483 71.6101 37.8258C71.8452 37.5304 71.9356 37.3676 71.4192 37.3073C70.8163 37.239 70.0607 37.9102 69.6749 38.288C69.4116 38.5492 69.1785 38.9732 69.4418 39.3229C69.705 39.6725 70.328 39.775 70.752 39.8132C71.6121 39.8876 72.5083 39.9539 73.3483 39.7589C73.6377 39.6926 73.9994 39.558 74.3048 39.6344C74.4194 39.6645 74.4234 39.773 74.5781 39.7891C74.7329 39.8052 74.8112 39.6946 74.9459 39.6424C75.6271 39.3912 75.8903 40.2995 76.234 40.7376C76.7524 41.3987 76.9031 42.1925 76.1797 42.7572C75.8895 42.9422 75.6287 43.1698 75.406 43.4324C75.181 43.7458 75.0463 43.7961 74.6404 43.7981C74.56 43.7981 74.4776 43.7981 74.3953 43.7981L73.7522 43.6152C73.4194 43.4844 73.0695 43.4018 72.7133 43.3701C72.3114 43.3339 72.1546 43.5168 71.8472 43.7378C70.9911 44.3567 71.9939 44.6863 72.6751 44.6863C73.5191 44.6863 74.1019 44.5939 74.7329 45.2088C75.2815 45.7473 75.7517 46.2999 76.4771 46.6154C76.7404 46.732 77.4618 47.0837 77.7331 46.8927C78.147 46.6034 77.6205 46.1733 77.6004 45.9121C77.5783 45.5966 77.9782 45.6529 78.2214 45.689C78.6494 45.7534 78.9147 45.7775 79.204 45.3675C79.7285 44.622 79.405 44.204 79.1176 43.4344C79.0828 43.3551 79.0698 43.268 79.0799 43.1821C79.09 43.0961 79.1229 43.0144 79.1751 42.9454C79.2273 42.8763 79.297 42.8225 79.377 42.7894C79.457 42.7563 79.5443 42.7452 79.6301 42.7572C80.05 42.8034 80.1224 43.3741 80.4861 43.561C81.4205 44.0232 83.1306 42.5904 81.728 42.084Z" fill="#004775"/>
<path d="M76.196 36.8188C76.1335 36.8336 76.0751 36.8621 76.0248 36.902C75.9745 36.942 75.9337 36.9925 75.9051 37.0501C75.8765 37.1076 75.861 37.1707 75.8595 37.2349C75.858 37.2991 75.8707 37.3628 75.8966 37.4216C76.0232 37.6688 76.4412 37.7431 76.6863 37.7652L76.8391 38.0405C77.0882 38.0405 77.3354 37.7572 77.6047 37.705C77.8056 37.6648 78.1191 37.725 78.308 37.6427C78.5371 37.5442 78.5833 37.2809 78.308 37.1282C78.1312 37.0318 77.8237 37.0961 77.6348 37.0639C77.1967 36.9835 76.6602 36.6861 76.196 36.8188Z" fill="#004775"/>
<path d="M70.164 37.0739L70.2866 36.889C69.7179 36.8267 69.109 36.9192 68.5645 36.8046C68.3654 36.738 68.16 36.6922 67.9516 36.668C67.843 36.7102 67.8571 36.881 67.7828 36.9513C67.6875 37.0287 67.5794 37.0885 67.4632 37.1282C67.192 37.2568 66.4826 37.7531 66.8604 38.0766C67.198 38.362 67.827 37.9179 68.1686 37.8757C68.6288 37.8114 68.882 37.938 69.308 37.729C69.6134 37.5662 70.0435 37.4175 70.164 37.0739Z" fill="#004775"/>
<path d="M72.7985 36.5735C73.2004 36.5735 73.6626 36.5052 74.0544 36.5735C74.4463 36.6419 74.7778 36.9272 75.1556 36.9353L75.4008 36.9654C75.5314 36.6338 76.4377 36.6459 76.7411 36.4369C76.926 36.3083 77.1913 35.9325 77.0868 35.6793C76.9823 35.4261 76.5502 35.4321 76.3191 35.4422C75.9792 35.4877 75.6432 35.5596 75.3144 35.6572C74.8495 35.7502 74.3703 35.7447 73.9077 35.6411C73.3049 35.5286 72.5613 35.4784 72.0389 35.183C71.7073 34.9941 71.436 34.8594 71.1446 35.2473C70.8532 35.6351 70.8352 35.8602 70.4453 36.1154C70.8653 36.7303 72.1172 36.5735 72.7985 36.5735Z" fill="#004775"/>
<path d="M63.737 39.0234L63.6747 38.9309C64.2455 39.0957 64.9408 38.8023 65.3688 38.4105C65.5532 38.2062 65.7118 37.9802 65.841 37.7373C65.9676 37.5524 66.2711 37.3012 66.1846 37.0339C66.1722 36.9966 66.1509 36.9628 66.1226 36.9355C66.0942 36.9082 66.0597 36.8882 66.0219 36.8772C64.9367 37.4506 63.865 38.0534 62.8066 38.6858C62.929 38.8047 63.0752 38.8962 63.2356 38.9544C63.396 39.0126 63.5669 39.0361 63.737 39.0234Z" fill="#004775"/>
<path d="M68.4409 43.7436C68.1756 43.2835 67.5446 43.0966 67.193 43.6512C67.0121 43.9366 67.0021 44.1415 66.7046 44.3566C66.4635 44.5314 65.9169 44.7283 65.9008 45.084V45.0539C65.8325 45.5402 66.3349 45.4558 66.6725 45.4558C67.0472 45.4589 67.4081 45.3146 67.6773 45.0539C67.7834 44.9667 67.9137 44.9142 68.0506 44.9034C68.1875 44.8926 68.3244 44.9241 68.4429 44.9936C68.6599 45.09 69.0076 45.496 69.2708 45.3372C69.5341 45.1784 69.2427 44.6439 69.0879 44.4651C68.8448 44.1817 68.6358 44.0833 68.4409 43.7436Z" fill="#004775"/>
<path d="M60.7584 40.2392C60.8158 40.1936 60.8603 40.1339 60.8874 40.0658C60.9145 39.9978 60.9234 39.9238 60.9132 39.8513C60.3625 40.2077 59.8166 40.5707 59.2754 40.9405L59.3859 40.9807C59.8915 40.8353 60.3597 40.5823 60.7584 40.2392Z" fill="#004775"/>
<path d="M79.3906 55.9637C78.7435 56.7353 78.4019 57.7843 77.4715 58.2626C77.0696 58.4635 76.6898 58.5379 76.4085 58.9036C76.1271 59.2694 76.0628 59.5728 76.4908 59.7175C76.8381 59.8179 77.2067 59.8179 77.5539 59.7175C77.8814 59.5848 78.1085 59.2673 78.5004 59.2332C78.8329 59.2448 79.1611 59.3128 79.471 59.4341C79.7965 59.5386 80.0216 59.8159 80.327 59.9245C81.3318 60.2761 81.0344 59.3799 81.1429 58.8212C81.1822 58.494 81.2399 58.1693 81.3157 57.8486C81.4102 57.5713 81.8241 57.2719 81.2273 57.2679C80.9841 57.2679 80.8113 57.4548 80.6244 57.513L80.2969 57.714C79.4589 57.9431 79.1957 57.0649 79.694 56.5083C79.8608 56.3174 80.329 56.1184 80.2185 55.7627C80.1663 55.5959 80.0798 55.5437 79.9834 55.5457C79.8559 55.6455 79.7152 55.7273 79.5654 55.7889C79.5041 55.8441 79.4458 55.9024 79.3906 55.9637Z" fill="#004775"/>
<path d="M33.5106 83.5964C33.6553 84.9689 33.1308 85.8772 34.5154 86.8418C35.062 87.2236 35.7331 87.3984 36.3701 87.5974C37.174 87.8465 37.3749 88.2002 38.0019 88.6785C39.146 89.5507 40.5673 89.979 42.0028 89.8842C43.299 89.8179 43.9018 91.0698 45.1015 91.524C46.3615 92.0022 47.111 92.2675 47.8586 93.4973C48.2103 94.0781 48.1299 94.6387 48.5177 95.1974C48.8714 95.7098 49.5526 96.1137 50.0691 96.4393C50.5473 96.7407 51.1743 97.1607 51.7209 97.3134C52.4845 97.5144 52.5247 97.1526 53.1276 96.8452C54.7352 96.0193 54.7352 98.3684 54.7352 99.3571C54.7352 100.161 54.6045 100.503 54.2448 101.152L53.5094 102.623C53.642 102.705 53.7525 102.683 53.6621 102.936C52.5448 103.268 52.7618 103.74 52.384 104.745C52.0062 105.749 52.3036 106.127 52.2896 107.108C52.2896 107.912 51.6646 107.89 51.4858 108.514C51.3431 109.013 51.9741 109.782 52.2032 110.215C52.4825 110.747 52.7658 111.589 53.1979 112.067C53.8007 112.728 54.2951 112.958 54.7151 113.785C55.3039 114.945 55.4646 116.613 56.3468 117.579C57.1265 118.433 58.3945 118.882 59.3068 119.517C60.4683 120.32 61.7183 122.225 61.8368 123.598C62.0016 125.607 61.8509 127.529 61.7584 129.554C61.658 131.861 62.3432 133.885 62.2448 136.172C62.1604 138.181 62.4216 139.883 62.9039 141.784C63.2957 143.342 64.61 143.995 65.1143 145.622C65.6187 147.25 66.1573 149.004 66.8908 150.6C67.4715 151.852 68.0764 153.924 69.6478 153.885C70.6405 153.863 70.4376 153.739 70.9902 154.689C71.4383 155.453 71.9949 155.32 72.5235 155.77H72.3607C72.8611 155.77 74.0969 156.072 74.4827 155.77C75.1941 155.216 74.1311 154.786 73.6669 154.529C72.5457 153.924 71.6285 153.001 71.0304 151.876C70.307 150.54 72.3788 149.746 71.796 148.582C71.4765 147.939 68.6591 147.943 69.5634 146.689C69.8046 146.358 70.3893 146.352 70.6446 145.976L70.4014 145.486C70.8455 144.423 70.3692 144.449 69.9292 143.589C69.8066 143.352 69.6197 142.747 69.7443 142.465C69.9673 141.961 70.3471 142.234 70.733 142.063C71.4062 141.766 71.4403 141.069 72.0291 140.657C72.6501 140.217 73.8377 140.408 74.2396 139.7C75.0193 138.358 71.5448 136.71 73.8377 136.594C74.5772 136.555 75.2624 136.732 75.9597 136.758C76.8841 136.792 76.9303 136.459 77.2659 135.695C77.5676 135.063 77.8144 134.406 78.0034 133.732C78.13 133.242 78.1381 133.085 78.4757 132.671C78.6766 132.422 79.0001 132.335 79.2091 132.08C79.6198 131.529 79.9051 130.894 80.0451 130.221C80.1194 129.576 79.6874 128.935 79.8743 128.262C80.1717 127.199 81.5864 126.04 82.6555 125.893C83.3186 125.802 84.0802 126.076 84.6147 125.569C85.0609 125.151 85.1593 124.42 85.6195 123.962C86.1782 123.393 86.6122 123.216 86.7408 122.39C86.8473 121.695 86.6846 120.955 86.6584 120.268C86.5981 118.703 86.8976 117.726 87.4783 116.352C87.7637 115.672 87.7818 115.043 88.2319 114.408C88.6137 113.872 89.2366 113.476 89.5843 112.919C89.9661 112.329 89.8395 111.583 89.8435 110.878C89.8435 109.937 89.6426 109.897 89.0397 109.248C88.1113 108.221 87.3919 107.64 85.9973 107.291C84.6027 106.941 83.4311 106.875 82.3239 105.9C81.2166 104.925 79.8984 105.494 78.7469 104.795C78.333 104.55 77.5412 103.963 77.3543 103.509C77.1152 102.972 77.077 102.43 76.7515 101.879C76.1486 100.822 75.803 99.5138 74.5671 99.0356C73.5021 98.6337 71.7538 99.1099 71.151 98.1192C70.8093 97.5485 70.7671 97.1828 70.2346 96.7126C69.8186 96.3448 69.2821 96.1097 68.9043 95.754C68.4542 95.318 68.3175 94.7774 67.7649 94.4619C67.2123 94.1464 66.5793 94.1966 65.9905 94.2831C65.4017 94.3695 64.6562 94.6166 64.0232 94.4498C63.5228 94.3192 62.9501 93.847 62.4799 93.6078C61.7946 93.2642 61.3867 93.0191 60.826 93.6078C60.4241 94.0238 60.6251 95.0587 59.9559 94.9221C60.0001 94.478 60.1327 93.9032 59.6344 93.6963C59.5219 92.9668 60.2372 92.9387 60.1729 92.3298C59.2526 92.8362 58.1493 93.0271 57.1727 93.4431C56.5699 93.6963 56.2242 94.0098 56.0253 94.6066C55.8806 95.0406 55.9188 95.33 55.6374 95.6917C55.4365 95.9449 55.1411 96.0454 54.9663 96.3227L54.49 95.752C54.06 94.3695 52.4222 95.752 51.5461 95.4466C50.5413 95.109 49.9706 93.8731 50.0188 92.8945C50.065 91.95 50.475 90.1053 49.6692 89.5506C48.8633 88.996 47.2055 89.5044 46.253 89.207C46.1043 88.2947 47.0869 87.5994 47.4848 86.9362C47.7079 86.5665 47.7802 86.0942 47.953 85.7124C48.0897 85.407 48.4835 84.9086 48.5458 84.5911C48.8131 83.2568 47.4366 83.7351 46.6468 83.8335C45.3206 83.9963 45.4029 84.7278 45.0955 85.8732V86.038C44.3399 86.7674 41.9767 87.3582 41.0905 86.6127C40.6122 86.2108 40.7288 85.1297 40.6243 84.567C40.4897 83.8496 40.2827 83.1965 40.2787 82.445C40.2787 81.7316 40.5158 81.0684 40.7509 80.4053C40.9639 79.8024 41.1186 78.9223 41.4221 78.3636C41.824 77.608 43.6326 76.4727 44.5208 76.2195C45.7486 75.8658 46.7071 77.0635 47.8144 76.1773C48.4775 75.6488 48.6041 75.5402 49.5044 75.3634C50.1997 75.2268 50.8005 74.9957 51.5461 75.0981C53.3808 75.3493 52.7879 77.0012 52.9326 78.3656C53.1336 80.3551 55.0406 80.337 55.4023 78.3837C55.551 77.5799 55.2114 76.8866 55.2998 76.0788C55.4084 75.0861 55.9308 74.7244 56.5859 74.0411C57.3897 73.1971 57.9544 72.4556 58.8728 71.7503C59.6968 71.1485 60.3763 70.3707 60.8622 69.4735C61.6941 67.7935 63.2736 66.5516 64.8812 65.4926C65.6509 64.9822 66.3301 64.6547 66.9973 64.0036C67.5371 63.4454 68.1353 62.9468 68.7817 62.5165C69.3846 62.1165 70.0372 61.797 70.7229 61.566C70.4536 62.9104 71.1248 63.0048 72.2662 62.6773C73.2328 62.398 75.0193 62.406 73.6729 61.3309C73.1866 60.9431 72.847 61.0315 73.0198 60.1674C73.1022 59.7554 73.703 59.1224 73.5141 58.6984C73.1846 57.9489 71.1027 58.389 70.4195 58.3588C70.0819 56.8115 73.1283 57.2817 73.9181 57.3099C74.6073 57.334 75.2926 57.4586 75.9577 57.3099C76.6229 57.1612 77.2137 56.717 77.8366 56.3915C78.3812 56.1062 79.0423 56.0017 79.5528 55.7886C79.7026 55.7271 79.8432 55.6453 79.9707 55.5455C80.2521 55.3204 80.4169 54.9969 80.3726 54.4563C80.242 53.0637 78.4777 52.7784 78.2506 51.3536C78.0235 49.9289 78.544 47.8129 76.4541 48.9703C75.9678 49.2416 75.0655 49.6054 74.5752 49.1512C74.1291 48.7372 74.2938 48.046 73.8477 47.5998C73.2167 46.9668 71.5589 46.0405 70.6526 46.4524C70.2286 46.6534 69.7242 47.843 69.4147 48.261C69.0711 48.7051 68.209 49.1894 68.0462 49.6476C67.9297 49.9711 68.205 50.3006 68.1286 50.6302C68.0382 51.018 67.6845 51.3275 67.3952 51.6088C66.8224 52.1615 66.0407 52.4127 65.5765 53.0738C65.0742 53.7932 64.9556 54.2795 64.204 54.81C63.6976 55.1697 63.1249 55.5797 62.5964 55.9253C62.3573 55.4169 62.4658 54.5186 62.5964 53.9761C62.8315 53.0155 63.1048 53.0316 62.1945 52.487C61.1717 51.8842 59.9338 51.1889 58.7462 51.1205C58.0127 51.0763 57.3636 51.2411 57.2772 50.385C57.239 50.0052 57.5405 49.8143 57.5244 49.4868C57.5043 49.0849 57.227 48.9161 57.1928 48.5905C57.0662 47.3326 59.3671 46.8523 60.3156 46.4022C61.0511 46.0545 61.8368 45.9119 62.5844 45.6526C63.3319 45.3934 63.8303 44.9352 64.4613 44.4911C65.5424 43.7275 66.7521 42.9317 67.9759 42.4655C69.0369 42.0636 70.4557 42.7549 71.0123 41.2598C71.7016 39.411 68.9083 41.8627 68.4622 42.0636C67.7971 42.365 67.1319 42.2646 67.4695 41.3442C67.2907 41.308 67.144 41.1433 66.9229 41.1433C67.0535 40.4821 66.4708 40.3656 65.9463 40.4078C65.7132 40.0059 65.9302 39.614 66.2497 39.3749C64.5718 38.6816 64.4572 40.7112 63.4766 41.4186C62.307 42.2646 61.2661 41.6195 59.8896 41.9511C59.2345 42.1159 58.5553 42.4032 57.8459 42.3007C57.7282 42.2831 57.6124 42.2542 57.5003 42.2143C44.6708 51.5569 35.4121 64.9965 31.2539 80.3129C31.7402 81.613 33.3619 82.2139 33.5106 83.5964Z" fill="#004775"/>
<path d="M55.9103 83.3353C55.4019 83.068 55 82.5576 54.4715 82.3305C53.943 82.1035 53.3422 82.2461 52.7594 82.2461C52.2188 82.2461 51.5537 82.1477 51.0473 82.2984C50.5409 82.4491 49.8416 83.1625 50.7037 83.48L51.3206 83.4097C51.8511 83.5262 52.0862 83.0078 52.6248 83.064C52.874 83.0901 53.3663 83.4659 53.6496 83.5624C54.6082 83.914 55.213 84.0366 55.4301 85.0535C55.6169 85.9316 55.7596 85.6563 56.5936 85.602C56.9955 85.5799 57.9801 85.803 58.2575 85.4835C59.0331 84.6093 56.4027 83.5965 55.9103 83.3353Z" fill="#004775"/>
<path d="M60.7017 85.1017C60.4445 84.9891 60.2033 84.8063 59.8818 84.9108C59.4196 85.0595 59.703 84.949 59.6608 85.2665C59.5502 86.0944 59.9099 86.1828 58.9896 86.4862C58.7203 86.5747 58.3867 86.4079 58.3867 86.8138C58.3867 87.0569 58.867 87.2579 59.0579 87.3101C59.5643 87.4508 61.0132 87.4488 61.2985 87.2921C61.5839 87.1353 61.5738 87.0348 61.9335 86.9665C62.4198 86.8721 63.2457 87.2077 63.302 86.5646C63.3784 85.7467 61.2905 85.3529 60.7017 85.1017Z" fill="#004775"/>
<path opacity="0.7" d="M29.4749 75.4296C19.8754 93.9996 27.1479 116.826 45.7159 126.433C64.2839 136.041 87.112 128.76 96.7216 110.19C106.331 91.6203 99.0486 68.7861 80.4786 59.1786C61.9086 49.5711 39.0724 56.8596 29.4749 75.4296Z" fill="#0091C6"/>
<path d="M39.5366 130.649L35.0371 139.355L41.3425 142.614L45.842 133.907L39.5366 130.649Z" fill="#EDEDED"/>
<path d="M42.9202 131.837C64.4824 142.976 90.9799 134.536 102.121 112.984C113.261 91.4314 104.824 64.9238 83.2694 53.783C61.7153 42.6422 35.2097 51.0822 24.0689 72.6424C12.9281 94.2025 21.3681 120.696 42.9202 131.837ZM29.4725 75.4296C39.07 56.8596 61.9062 49.5871 80.4761 59.1866C99.0461 68.7861 106.317 91.6203 96.7191 110.19C87.1216 128.76 64.2814 136.033 45.7134 126.433C27.1455 116.834 19.871 93.9996 29.4725 75.4296Z" fill="#EC6822"/>
<g style="mix-blend-mode:multiply">
<path d="M43.0445 122.77C61.6145 132.369 84.4406 125.097 94.0482 106.527C97.1083 100.607 98.5505 93.9846 98.2286 87.3287C97.9068 80.6727 95.8325 74.2199 92.2155 68.6233C96.9635 74.3445 99.922 81.337 100.722 88.7287C101.522 96.1203 100.127 103.584 96.7128 110.188C87.1213 128.76 64.2831 136.033 45.7151 126.433C39.8434 123.406 34.8716 118.888 31.2988 113.331C34.5389 117.236 38.5339 120.446 43.0445 122.77Z" fill="#9EB8C7"/>
</g>
<path d="M39.685 125.208L35.1855 133.914L45.6933 139.344L50.1928 130.638L39.685 125.208Z" fill="#EC6822"/>
<path d="M10.9916 180.728C7.01679 188.415 17.7617 193.388 21.4974 186.154L43.9096 142.809L33.3998 137.383L10.9916 180.728Z" fill="#1C3761"/>
<path d="M42.3687 84.3556C42.3618 84.3799 40.2186 91.3773 40.2178 91.3801C39.9853 92.1382 40.4113 92.9412 41.1694 93.1738C41.9272 93.4059 42.7297 92.9806 42.9627 92.2229C42.9633 92.2229 45.1085 85.2287 45.1085 85.2287C45.1211 85.1991 45.1852 85.0765 45.3353 85.0765C45.349 85.0765 45.6376 85.0765 45.6376 85.0765H45.6384C45.7237 85.075 45.7736 85.1477 45.7513 85.2298L41.4562 99.2833C41.433 99.3649 41.4562 99.5082 41.6056 99.5082H44.6184C44.7037 99.5082 44.766 99.5773 44.766 99.6627C44.766 99.6627 44.7653 109.901 44.7653 109.905C44.7653 110.928 45.5942 111.756 46.6167 111.756C47.6392 111.756 48.4678 110.928 48.4678 109.905L48.4685 99.6627C48.4685 99.5773 48.5376 99.5082 48.623 99.5082H48.6255H48.9214H48.9239C49.0092 99.5082 49.0784 99.5773 49.0784 99.6627L49.0791 109.905C49.0791 110.928 49.908 111.756 50.9305 111.756C51.953 111.756 52.782 110.928 52.782 109.905C52.782 109.901 52.7813 99.6627 52.7813 99.6627C52.7813 99.5773 52.8438 99.5082 52.9288 99.5082H55.9416C56.091 99.5082 56.1146 99.3649 56.091 99.2833L51.7964 85.2295C51.774 85.1477 51.8236 85.075 51.9089 85.0762H51.9096C51.9096 85.0762 52.1982 85.0762 52.212 85.0762C52.3617 85.0762 52.4261 85.1988 52.4387 85.2284C52.4387 85.2284 54.5958 92.2533 54.6012 92.2689C54.6743 92.551 54.722 92.6599 54.8316 92.8628L58.0766 98.9545C58.1178 99.0258 58.1515 99.1506 58.1515 99.233V110.014C58.1655 110.91 58.9457 111.756 59.9273 111.756C60.909 111.756 61.7939 110.915 61.808 110.019L61.8088 105.505C61.8088 105.422 61.8757 105.355 61.9582 105.355H62.1821C62.2645 105.355 62.3315 105.422 62.3315 105.505L62.3329 110.043C62.3471 110.938 63.0606 111.757 64.0423 111.757C64.9692 111.757 65.7313 110.98 65.8249 110.139C65.834 110.056 65.8394 99.4083 65.8394 99.4083C65.8394 99.4083 65.872 99.2006 65.9121 99.1287C65.9121 99.1287 68.8569 93.3802 69.1712 92.8182C69.2377 92.6992 69.293 92.595 69.3354 92.4337C69.3375 92.4261 70.5133 85.3101 70.5133 85.3101C70.5133 85.2276 70.5803 85.1607 70.6627 85.1607H70.9669C71.0494 85.1607 71.1163 85.2276 71.1163 85.3101C71.1163 85.3101 71.1163 109.902 71.1163 109.905C71.1163 110.928 71.9452 111.757 72.9677 111.757C73.9902 111.757 74.8192 110.928 74.8192 109.905C74.8192 109.902 74.8192 95.4338 74.8192 95.4338C74.8192 95.3282 74.8681 95.2843 74.9722 95.2843H75.2705C75.3747 95.2843 75.4235 95.3285 75.4235 95.4338C75.4235 95.4338 75.4235 109.903 75.4235 109.905C75.4235 110.928 76.2525 111.757 77.275 111.757C78.2975 111.757 79.1265 110.928 79.1265 109.905C79.1265 109.902 79.1265 85.3101 79.1265 85.3101C79.1265 85.2276 79.1933 85.1607 79.2759 85.1607H79.58C79.6625 85.1607 79.7294 85.2276 79.7294 85.3101C79.7294 85.3101 79.7306 94.0761 79.7312 94.0764C79.7316 94.8689 80.3743 95.5108 81.1668 95.5108C81.9595 95.5108 82.6023 94.8681 82.6023 94.0753C82.6023 94.0709 82.6023 84.2185 82.6023 84.1013C82.6019 82.1366 81.0909 80.6255 79.2018 80.6255C79.1537 80.6255 76.6147 80.6255 75.4237 80.6255C75.4237 80.6255 71.0894 80.6255 71.0413 80.6255C69.1522 80.6255 67.6411 82.1366 67.6411 84.1013C67.6411 84.2 66.8421 89.7767 66.5894 91.5399L64.8345 95.1795C64.7513 95.3234 64.6569 95.3798 64.4804 95.3798H59.4506C59.3681 95.3798 59.2679 95.3219 59.2271 95.2503C59.2271 95.2503 57.7167 92.1276 57.3611 91.504C57.3524 91.4628 55.1791 84.3558 55.1791 84.3558C54.8511 83.2158 54.225 80.6204 51.8039 80.6204H45.7516C43.4957 80.6199 42.6968 83.2157 42.3687 84.3556Z" fill="#95D3E6"/>
<path d="M75.1202 79.7962C76.6417 79.7962 77.8751 78.5628 77.8751 77.0413C77.8751 75.5198 76.6417 74.2864 75.1202 74.2864C73.5987 74.2864 72.3652 75.5198 72.3652 77.0413C72.3652 78.5628 73.5987 79.7962 75.1202 79.7962Z" fill="#95D3E6"/>
<path d="M48.7745 79.7913C50.296 79.7913 51.5294 78.5579 51.5294 77.0364C51.5294 75.5149 50.296 74.2815 48.7745 74.2815C47.253 74.2815 46.0195 75.5149 46.0195 77.0364C46.0195 78.5579 47.253 79.7913 48.7745 79.7913Z" fill="#95D3E6"/>
<path d="M61.1502 90.8186C60.5161 91.1538 60.084 91.8193 60.084 92.5865C60.084 93.6903 60.9788 94.5851 62.0825 94.5851C63.1864 94.5851 64.0815 93.6903 64.0815 92.5865C64.0815 91.904 63.7395 91.3018 63.2171 90.9412V89.7708L62.6782 90.6783C62.6193 90.6598 62.5592 90.6447 62.4985 90.6316V89.7708L62.007 90.5897C61.9274 90.5925 61.8489 90.5998 61.7722 90.6118V89.7705L61.1502 90.8186Z" fill="#95D3E6"/>
<g style="mix-blend-mode:soft-light">
<path d="M30.3571 87.6031C33.725 92.3778 45.0366 90.1974 55.6248 82.7341C66.213 75.2707 72.0627 65.3457 68.6867 60.569C65.3107 55.7924 54.0172 57.9727 43.421 65.4381C32.8248 72.9035 26.9911 82.8265 30.3571 87.6031Z" fill="white"/>
</g>
</svg>
