<?xml version="1.0" encoding="iso-8859-1"?>
<!-- Generator: Adobe Illustrator 19.0.0, SVG Export Plug-In . SVG Version: 6.00 Build 0)  -->
<svg version="1.1" id="Layer_1" xmlns="http://www.w3.org/2000/svg" xmlns:xlink="http://www.w3.org/1999/xlink" x="0px" y="0px"
	 viewBox="0 0 147.177 147.177" style="enable-background:new 0 0 147.177 147.177;" xml:space="preserve">
<g>
	<path style="fill:#FCCAAE;" d="M58.735,147.177h52.609c0,0-3.719-31.231-1.673-38.109c2.045-6.879,16.917-26.398,15.057-48.706
		c-1.859-22.308-14.314-39.968-42.756-40.897C53.53,18.534,38.1,34.15,34.754,47.162c-3.346,13.013-3.904,10.968-2.045,17.289
		c1.859,6.32-9.737,16.176-10.41,23.052c-0.346,3.531,7.808,4.461,7.808,4.461s-3.926,21.208,7.063,23.795
		C59.792,121.084,59.664,119.477,58.735,147.177z"/>
	<g>
		<path style="fill:#D6EFFF;" d="M62.861,30.847c1.39-2.107,2.505-4.692,1.791-7.283c-0.494-1.793-1.148-3.167-2.196-4.728
			c-1.898-2.827-0.6-5.237,1.402-7.441c3.846-4.238,0.934-8.79-3.289-11.141c-2.115-1.178-4.005,2.062-1.892,3.238
			c3.619,2.015,3.26,4.545,0.896,6.998c-1.335,1.385-2.05,2.809-2.372,4.686c-0.928,5.42,6.421,7.716,2.422,13.779
			C58.287,30.98,61.536,32.856,62.861,30.847L62.861,30.847z"/>
	</g>
	<g>
		<path style="fill:#D6EFFF;" d="M81.441,30.847c1.39-2.107,2.505-4.692,1.791-7.283c-0.494-1.793-1.148-3.167-2.196-4.728
			c-1.897-2.827-0.6-5.237,1.402-7.441c3.846-4.238,0.934-8.79-3.289-11.141c-2.115-1.178-4.005,2.062-1.893,3.238
			c3.619,2.015,3.26,4.545,0.896,6.998c-1.335,1.385-2.05,2.809-2.372,4.686c-0.928,5.42,6.421,7.716,2.422,13.779
			C76.867,30.98,80.116,32.856,81.441,30.847L81.441,30.847z"/>
	</g>
	<g>
		<path style="fill:#D6EFFF;" d="M98.434,30.847c1.39-2.107,2.505-4.692,1.791-7.283c-0.494-1.793-1.148-3.167-2.196-4.728
			c-1.897-2.827-0.6-5.237,1.402-7.441c3.846-4.238,0.934-8.79-3.289-11.141c-2.115-1.178-4.005,2.062-1.893,3.238
			c3.619,2.015,3.26,4.545,0.896,6.998c-1.335,1.385-2.05,2.809-2.372,4.686c-0.928,5.42,6.421,7.716,2.422,13.779
			C93.861,30.98,97.11,32.856,98.434,30.847L98.434,30.847z"/>
	</g>
	<g>
		<path style="fill:#D6EFFF;" d="M80.693,87.986V54.611c0-2.438-1.978-4.416-4.417-4.416s-4.417,1.978-4.417,4.416v33.375
			c-4.093,1.726-6.967,5.774-6.967,10.496c0,6.286,5.097,11.384,11.384,11.384c6.288,0,11.385-5.098,11.385-11.384
			C87.661,93.761,84.787,89.712,80.693,87.986z"/>
		<circle style="fill:#E74C3C;" cx="76.277" cy="98.665" r="6.87"/>
		<path style="fill:#E74C3C;" d="M78.24,60.394V94.83c0,1.084-0.879,1.963-1.963,1.963l0,0c-1.084,0-1.963-0.879-1.963-1.963V60.394
			"/>
	</g>
</g>
<g>
</g>
<g>
</g>
<g>
</g>
<g>
</g>
<g>
</g>
<g>
</g>
<g>
</g>
<g>
</g>
<g>
</g>
<g>
</g>
<g>
</g>
<g>
</g>
<g>
</g>
<g>
</g>
<g>
</g>
</svg>
